<?xml version="1.0" encoding="UTF-8" standalone="no"?>
<!-- Created with Inkscape (http://www.inkscape.org/) -->

<svg
   xmlns:dc="http://purl.org/dc/elements/1.1/"
   xmlns:cc="http://creativecommons.org/ns#"
   xmlns:rdf="http://www.w3.org/1999/02/22-rdf-syntax-ns#"
   xmlns:svg="http://www.w3.org/2000/svg"
   xmlns="http://www.w3.org/2000/svg"
   xmlns:sodipodi="http://sodipodi.sourceforge.net/DTD/sodipodi-0.dtd"
   xmlns:inkscape="http://www.inkscape.org/namespaces/inkscape"
   width="150"
   height="150"
   viewBox="0 0 150 150"
   id="svg4154"
   version="1.1"
   inkscape:version="0.91 r13725"
   sodipodi:docname="frog.svg"
   inkscape:export-filename="/home/martyn/development/projectfiles/BKVelo/frogbigger.png"
   inkscape:export-xdpi="299.72485"
   inkscape:export-ydpi="299.72485">
  <defs
     id="defs4156" />
  <sodipodi:namedview
     id="base"
     pagecolor="#ffffff"
     bordercolor="#666666"
     borderopacity="1.0"
     inkscape:pageopacity="0.0"
     inkscape:pageshadow="2"
     inkscape:zoom="1.979899"
     inkscape:cx="99.181245"
     inkscape:cy="28.227605"
     inkscape:document-units="px"
     inkscape:current-layer="layer1"
     showgrid="false"
     inkscape:window-width="1920"
     inkscape:window-height="1056"
     inkscape:window-x="1920"
     inkscape:window-y="24"
     inkscape:window-maximized="1"
     units="px" />
  <metadata
     id="metadata4159">
    <rdf:RDF>
      <cc:Work
         rdf:about="">
        <dc:format>image/svg+xml</dc:format>
        <dc:type
           rdf:resource="http://purl.org/dc/dcmitype/StillImage" />
        <dc:title></dc:title>
      </cc:Work>
    </rdf:RDF>
  </metadata>
  <g
     inkscape:label="Layer 1"
     inkscape:groupmode="layer"
     id="layer1"
     transform="translate(0,-902.36218)">
    <path
       id="path2997"
       style="color:#000000;fill:#24591f;fill-opacity:1;stroke:#194016;stroke-width:0.70342654;stroke-opacity:1"
       inkscape:connector-curvature="0"
       d="m 68.614428,904.75064 c -1.771964,0.062 -1.098146,3.67216 5.21684,10.99313 -19.149688,-11.59067 -11.461858,-0.21043 -1.495165,3.72488 -23.881605,-3.54295 -3.643143,3.20347 2.984998,5.41135 -0.932842,0.37295 -1.209318,1.30205 -1.209318,1.30205 l 4.848098,3.2629 c 4.291269,-2.98357 9.422148,0.46694 9.422148,0.46694 -3.358592,-0.18633 -6.904621,3.54351 -6.904621,3.54351 -11.193138,-12.3062 -24.221099,-12.83534 -27.797345,-10.07 -3.576084,2.76503 1.884106,17.88968 6.156792,26.29302 -2.985322,0.18655 -7.646625,5.7795 -7.646625,5.7795 -4.104959,-4.10234 -7.278368,-4.66422 -7.278368,-4.66422 6.025745,-3.35642 11.133675,-6.19737 9.103495,-8.01552 -1.392235,-1.24678 -4.295955,-2.23499 -12.836157,1.49431 -6.878763,-26.38792 -13.83428,-15.35071 -6.156792,-2.42817 -19.404834,-23.68059 -17.200463,-6.73201 -5.035539,1.30753 -25.1886828,-7.0857 -7.114519,6.52666 4.661788,6.52666 8.396066,7.08572 13.995706,10.99855 13.995706,10.99855 8.00761,7.43469 13.339985,-3.39546 16.233202,-4.28519 1.365249,10.2238 19.786503,17.28367 22.759382,22.37613 4.104963,1.86474 -0.368257,3.35678 -0.368257,3.35678 -17.48017,8.02591 -22.412778,16.43364 -16.618102,23.13382 5.794675,6.7007 20.205012,7.209 25.573912,7.0706 3.74898,-0.097 2.985,2.9832 2.985,2.9832 -2.98533,6.7128 -7.09142,9.6965 -7.09142,9.6965 -22.481452,4.2886 -8.312686,11.6784 -1.98445,6.4938 -17.417474,14.4586 -3.404156,15.9063 1.58307,6.3289 -7.510409,16.939 3.87147,15.0937 5.80518,1.0548 9.19302,12.3998 9.84567,1.4809 4.74953,-9.4933 -1.58323,-4.2193 5.80502,-13.9763 5.80502,-13.9763 6.06905,-13.4489 -27.442021,-14.24 -27.442021,-14.24 -7.388248,-3.16441 17.415211,-8.9659 17.415211,-8.9659 11.9804,-0.39277 11.60455,-6.91676 11.60455,-6.91676 -5.41075,-9.50987 -3.35326,-18.27818 -3.35326,-18.27818 0.37311,12.67976 5.40913,19.95358 5.40913,19.95358 4.85117,8.5774 8.76723,-1.56352 10.07641,-5.7795 1.67921,-5.40751 7.08592,-9.88344 7.08592,-9.88344 7.55565,-10.34806 2.45742,-10.09792 -2.42429,-5.21921 6.34585,-22.39723 -2.26158,-18.36081 -3.73267,-3.16991 -1.35183,-23.27445 -6.22045,-19.32069 -4.47483,0.74168 -3.73153,-19.76548 -7.36708,-8.57424 -3.73266,3.91706 0.37327,4.66157 -1.86358,2.79631 -1.86358,2.79631 -3.73153,-35.52789 -15.85946,-15.32487 -15.85946,-6.71355 -8.214925,-9.69726 -8.584475,-19.38924 -8.584475,-19.38924 0.192612,-4.11429 5.587195,-5.40733 8.212985,-8.95501 C 104.99787,923.72057 89.32424,923.383 89.32424,923.383 81.109151,920.77236 76.818691,912.75226 76.818691,912.75226 73.648836,907.39555 70.1815,904.69345 68.61766,904.74794 Z m -0.649095,24.09021 c 1.210772,0 2.193545,0.9821 2.193545,2.1921 0,1.20992 -0.982773,2.19206 -2.193545,2.19206 -1.210611,0 -2.193383,-0.98211 -2.193383,-2.19206 0,-1.20994 0.982772,-2.1921 2.193383,-2.1921 z m -8.047846,6.46073 c 1.210611,0 2.193384,0.98211 2.193384,2.1921 0,1.2099 -0.982612,2.19206 -2.193384,2.19206 -1.210772,0 -2.193545,-0.98209 -2.193545,-2.19206 0,-1.20994 0.982773,-2.1921 2.193545,-2.1921 z" />
  </g>
</svg>
